<svg xml:space="preserve" viewBox="0 0 18 18" xmlns="http://www.w3.org/2000/svg"><path d="M3.344 3.012c-.185.081-.374.332-.374.499 0 .034.022.105.048.158.026.053 1.224 1.274 2.662 2.713L8.295 9l-2.628 2.632c-1.678 1.681-2.642 2.668-2.666 2.73-.071.181.025.405.242.565.126.093.272.12.395.072.062-.024 1.049-.988 2.729-2.666L9 9.705l2.633 2.628c1.68 1.678 2.667 2.642 2.729 2.666.123.048.269.021.395-.072.217-.16.313-.384.242-.565-.024-.062-.988-1.049-2.666-2.729L9.705 9l2.628-2.633c1.678-1.68 2.642-2.667 2.666-2.729.071-.181-.025-.405-.242-.565-.126-.093-.272-.12-.395-.072-.062.024-1.049.988-2.73 2.666L9 8.295 6.382 5.68c-1.439-1.438-2.66-2.636-2.713-2.662a.338.338 0 0 0-.325-.006" fill-rule="evenodd"/></svg>