<svg viewBox="0 0 18 18" xml:space="preserve" xmlns="http://www.w3.org/2000/svg"><path d="M3.881 4.017c-.255.043-.371.195-.371.49 0 .199.073.347.21.427.104.061.131.061 5.28.061s5.176 0 5.28-.061c.139-.081.21-.228.21-.434s-.071-.353-.21-.434c-.104-.061-.135-.061-5.19-.065-2.797-.002-5.141.005-5.209.016M8.88 6.996c-.084.022-.637.56-2.707 2.628-1.432 1.43-2.623 2.643-2.648 2.695-.088.186-.055.334.116.516.166.177.328.225.52.153.047-.017 1.133-1.079 2.461-2.407L9 8.206l2.377 2.375c1.329 1.328 2.415 2.39 2.462 2.407.192.072.354.024.52-.153.163-.174.199-.31.13-.496-.035-.092-5.118-5.197-5.264-5.287a.401.401 0 0 0-.345-.056" fill-rule="evenodd"/></svg>