<svg viewBox="0 0 18 18" xml:space="preserve" xmlns="http://www.w3.org/2000/svg"><path d="M4.198 1.023a3.403 3.403 0 0 0-2.16 1.015c-.746.746-1.092 1.688-1.013 2.76.061.815.41 1.561 1.013 2.164.746.746 1.688 1.092 2.76 1.013a3.397 3.397 0 0 0 2.164-1.013c.745-.745 1.092-1.69 1.013-2.76a3.516 3.516 0 0 0-.558-1.622 4.222 4.222 0 0 0-.998-.998c-.454-.299-1.061-.515-1.544-.548a14.322 14.322 0 0 1-.315-.025 3.304 3.304 0 0 0-.362.014m9 0a3.403 3.403 0 0 0-2.16 1.015c-.603.603-.952 1.349-1.013 2.164-.079 1.072.267 2.014 1.013 2.76.746.746 1.688 1.092 2.76 1.013a3.397 3.397 0 0 0 2.164-1.013c.745-.745 1.092-1.69 1.013-2.76a3.516 3.516 0 0 0-.558-1.622 4.222 4.222 0 0 0-.998-.998c-.454-.299-1.061-.515-1.544-.548a14.322 14.322 0 0 1-.315-.025 3.304 3.304 0 0 0-.362.014M5.034 2.058c.458.094.818.288 1.184.638.526.503.772 1.078.772 1.804s-.246 1.301-.772 1.804c-.497.475-1.026.686-1.718.686-.685 0-1.217-.21-1.705-.673C2.251 5.8 2.01 5.243 2.01 4.5c0-.734.238-1.292.77-1.804.354-.34.728-.543 1.18-.64a3.365 3.365 0 0 1 1.074.002m9 0c.458.094.818.288 1.184.638.526.503.772 1.078.772 1.804s-.246 1.301-.772 1.804c-.497.475-1.026.686-1.718.686-.685 0-1.217-.21-1.705-.673-.544-.517-.785-1.074-.785-1.817 0-.704.205-1.215.688-1.721a2.378 2.378 0 0 1 1.196-.708 3.137 3.137 0 0 1 1.14-.013m-9.836 7.965a3.403 3.403 0 0 0-2.16 1.015c-.603.603-.952 1.349-1.013 2.164-.079 1.072.267 2.014 1.013 2.76.746.746 1.688 1.092 2.76 1.013a3.397 3.397 0 0 0 2.164-1.013c.745-.745 1.092-1.69 1.013-2.76a3.516 3.516 0 0 0-.558-1.622 4.222 4.222 0 0 0-.998-.998c-.454-.299-1.061-.515-1.544-.548a14.322 14.322 0 0 1-.315-.025 3.304 3.304 0 0 0-.362.014m9 0a3.403 3.403 0 0 0-2.16 1.015c-.603.603-.952 1.349-1.013 2.164-.079 1.072.267 2.014 1.013 2.76.746.746 1.688 1.092 2.76 1.013a3.397 3.397 0 0 0 2.164-1.013c.745-.745 1.092-1.69 1.013-2.76a3.516 3.516 0 0 0-.558-1.622 4.222 4.222 0 0 0-.998-.998c-.454-.299-1.061-.515-1.544-.548a14.322 14.322 0 0 1-.315-.025 3.304 3.304 0 0 0-.362.014m-8.164 1.035c.458.094.818.288 1.184.638.526.503.772 1.078.772 1.804s-.246 1.301-.772 1.804c-.497.475-1.026.686-1.718.686-.685 0-1.217-.21-1.705-.673-.544-.517-.785-1.074-.785-1.817 0-.734.238-1.292.77-1.804.354-.34.728-.543 1.18-.64a3.365 3.365 0 0 1 1.074.002m9 0c.458.094.818.288 1.184.638.526.503.772 1.078.772 1.804s-.246 1.301-.772 1.804c-.497.475-1.026.686-1.718.686-.685 0-1.217-.21-1.705-.673-.544-.517-.785-1.074-.785-1.817 0-.704.205-1.215.688-1.721a2.378 2.378 0 0 1 1.196-.708 3.137 3.137 0 0 1 1.14-.013" fill-rule="evenodd"/></svg>