<svg xmlns="http://www.w3.org/2000/svg" viewBox="0 0 18 18" xml:space="preserve"><path d="M3.162.044a1.743 1.743 0 0 0-.345.122c-.203.103-.564.462-.654.652-.161.336-.152-.101-.153 7.676 0 7.108.001 7.223.059 7.41a1.583 1.583 0 0 0 1.291 1.078c.167.02 2.177.027 5.85.022l5.595-.009.187-.064c.483-.166.826-.534.953-1.022.039-.15.045-1.089.045-7.394 0-5.118-.01-7.268-.033-7.381a1.435 1.435 0 0 0-.928-1.049l-.194-.07L9.09.01C4.396.005 3.312.012 3.162.044m11.623 1.015a.405.405 0 0 1 .157.18c.055.123.057.317.057 7.266.001 6.738-.002 7.146-.052 7.244a.529.529 0 0 1-.154.173l-.102.068H3.365l-.127-.097a.766.766 0 0 1-.182-.203C3.002 15.59 3 15.339 3 8.497c0-5.953.007-7.104.041-7.185a.586.586 0 0 1 .307-.291C3.396 1.006 5.931.997 9.06 1c5.373.005 5.629.007 5.725.059M5.299 3.031c-.188.056-.289.226-.289.486 0 .307.168.473.48.473.304 0 .471-.141.5-.424.025-.241-.062-.427-.236-.506a.677.677 0 0 0-.455-.029m1.946.025c-.166.077-.229.198-.229.441 0 .235.063.364.215.44.097.049.292.053 2.774.053 2.53 0 2.676-.003 2.773-.055.276-.148.29-.662.022-.858-.084-.061-.107-.062-2.76-.069-2.549-.007-2.681-.005-2.795.048M5.299 6.031c-.188.056-.289.226-.289.486 0 .307.168.473.48.473.304 0 .471-.141.5-.424.025-.241-.062-.427-.236-.506a.677.677 0 0 0-.455-.029m1.946.025c-.166.077-.229.198-.229.441 0 .235.063.364.215.44.097.049.292.053 2.774.053 2.53 0 2.676-.003 2.773-.055.276-.148.29-.662.022-.858-.084-.061-.107-.062-2.76-.069-2.549-.007-2.681-.005-2.795.048M5.299 9.031c-.188.056-.289.226-.289.486 0 .307.168.473.48.473.304 0 .471-.141.5-.424.025-.241-.062-.427-.236-.506a.677.677 0 0 0-.455-.029m1.946.025c-.166.077-.229.198-.229.441 0 .235.063.364.215.44.097.049.292.053 2.774.053 2.53 0 2.676-.003 2.773-.055.276-.148.29-.662.022-.858-.084-.061-.107-.062-2.76-.069-2.549-.007-2.681-.005-2.795.048m-1.946 2.975c-.188.056-.289.226-.289.486 0 .307.168.473.48.473.304 0 .471-.141.5-.424.025-.241-.062-.427-.236-.506a.677.677 0 0 0-.455-.029m1.946.025c-.166.077-.229.198-.229.441 0 .235.063.364.215.44.097.049.292.053 2.774.053 2.53 0 2.676-.003 2.773-.055.276-.148.29-.662.022-.858-.084-.061-.107-.062-2.76-.069-2.549-.007-2.681-.005-2.795.048" fill-rule="evenodd"/></svg>