<svg xmlns="http://www.w3.org/2000/svg" viewBox="0 0 18 18" style="enable-background:new 0 0 18 18" xml:space="preserve"><path d="M4.8 1.102c-1.069.121-2.34.763-3.194 1.612C.862 3.454.335 4.427.087 5.52.01 5.859-.02 6.631.027 7.05c.062.543.225 1.3.372 1.725.282.812.888 1.789 1.729 2.79.482.573 1.878 1.935 2.454 2.393.371.296 1.906 1.448 2.397 1.799.482.346 1.592 1.097 1.706 1.155.208.107.53.052.87-.148.598-.352 1.81-1.228 3.06-2.213 1.439-1.133 2.77-2.417 3.456-3.334 1.014-1.355 1.451-2.118 1.685-2.937.365-1.276.304-2.529-.183-3.78a4.51 4.51 0 0 0-.542-1.014c-.538-.797-1.244-1.401-2.166-1.853-1.139-.559-2.254-.687-3.615-.415a5.7 5.7 0 0 0-1.964.793L9 2.196l-.288-.186c-.957-.621-2.114-.939-3.363-.925-.244.002-.491.01-.549.017m8.535 1.88c.705.158 1.222.424 1.685.867.287.275.485.551.692.966.292.584.424 1.045.449 1.577.035.706-.171 1.466-.428 1.584-.249.113-.65-.059-.734-.313-.029-.09-.023-.145.045-.381.207-.719.144-1.267-.232-2.023-.431-.865-1.093-1.269-2.221-1.355-.362-.028-.447-.067-.538-.246a.704.704 0 0 1-.021-.469c.038-.1.14-.215.223-.252.09-.04.839-.009 1.08.045" fill-rule="evenodd" fill="#263238"/></svg>