<svg viewBox="0 0 18 18" xml:space="preserve" xmlns="http://www.w3.org/2000/svg"><path d="M3.881 4.017c-.255.043-.371.195-.371.49 0 .199.073.347.21.427.104.061.131.061 5.28.061s5.176 0 5.28-.061c.139-.081.21-.228.21-.434s-.071-.353-.21-.434c-.104-.061-.135-.061-5.19-.065-2.797-.002-5.141.005-5.209.016m.032 2.973c-.207.045-.433.309-.433.507 0 .053.022.139.048.192.062.124 5.055 5.13 5.23 5.244.152.099.287.111.431.039.124-.062 5.13-5.055 5.244-5.23.108-.165.112-.3.014-.466-.142-.242-.421-.357-.62-.256-.04.02-1.142 1.105-2.449 2.41L9 11.805 6.607 9.412A287.014 287.014 0 0 0 4.199 7.02a.86.86 0 0 1-.104-.025.465.465 0 0 0-.182-.005" fill-rule="evenodd"/></svg>