<svg xmlns="http://www.w3.org/2000/svg" viewBox="0 0 18 18" xml:space="preserve"><path d="M6.236.085c-.089.047-1.179.676-2.423 1.398A234.879 234.879 0 0 1 1.369 2.89a.745.745 0 0 0-.273.225l-.091.13-.008 2.9c-.005 1.948.002 2.95.024 3.053.022.108.06.179.128.243.077.073 4.629 2.834 5.1 3.094.104.057.157.067.3.055a.584.584 0 0 0 .25-.07c.043-.03 1.2-.731 2.571-1.556 2.417-1.456 2.495-1.506 2.561-1.635L12 9.195l.001-2.942c.001-3.21.009-3.06-.171-3.227a1.065 1.065 0 0 0-.214-.144 241.08 241.08 0 0 1-2.46-1.418A182.735 182.735 0 0 0 6.705.056c-.168-.077-.283-.069-.469.029m2.266 2.15a102.43 102.43 0 0 1 1.967 1.155c.001.019-3.945 2.231-3.973 2.228A243.149 243.149 0 0 1 2.522 3.39c.001-.023 3.968-2.312 3.992-2.303.012.004.907.521 1.988 1.148M4.103 5.429 6 6.491v4.726l-1.987-1.192-1.988-1.193-.008-2.289-.007-2.289.097.057 1.996 1.118m6.907 1.107v2.275L9.067 9.976a463.07 463.07 0 0 0-2.009 1.208l-.068.043V6.495L8.978 5.38a147.456 147.456 0 0 1 2.009-1.118c.013-.001.023 1.022.023 2.274m3.315 4.479a1.035 1.035 0 0 0-.303.301.437.437 0 0 0-.01.345c.017.046.54.594 1.162 1.216l1.13 1.133h-4.98c-4.681 0-4.985.003-5.082.053-.146.074-.213.181-.232.371-.025.241.062.427.236.506.126.057.238.059 5.093.059l4.965.001-1.145 1.148c-.772.773-1.152 1.174-1.166 1.231-.048.198.067.441.268.563.133.082.374.078.487-.007.131-.097 3-2.958 3.135-3.125.101-.125.117-.166.117-.294a.6.6 0 0 0-.043-.23c-.066-.125-3.201-3.239-3.296-3.274-.109-.041-.259-.039-.336.003" fill-rule="evenodd"/></svg>