<svg xmlns="http://www.w3.org/2000/svg" viewBox="0 0 18 18" style="enable-background:new 0 0 18 18" xml:space="preserve"><path d="M7.8.54a8.634 8.634 0 0 0-6.277 3.75C.235 6.174-.252 8.441.137 10.74a8.33 8.33 0 0 0 1.681 3.81c.279.354 1.193 1.255 1.572 1.549 1.553 1.205 3.217 1.817 5.145 1.89 1.443.055 2.855-.237 4.081-.842l.51-.252.25.043a9.699 9.699 0 0 1 2.565.829c.335.158.416.184.603.196.346.023.651-.091.998-.373a1.21 1.21 0 0 0 .428-.887c0-.407-.624-2.215-1.155-3.345a4.93 4.93 0 0 1-.195-.449c0-.017.061-.163.135-.323a7.161 7.161 0 0 0 .574-2.071c.065-.499.073-1.723.015-2.175-.218-1.694-.831-3.163-1.868-4.476-.313-.396-1.098-1.18-1.466-1.463-1.061-.816-2.172-1.359-3.366-1.646a9.575 9.575 0 0 0-.969-.186C9.4.526 8.126.507 7.8.54M5.446 8.107c.183.094.386.307.474.498.091.198.091.592 0 .79a1.187 1.187 0 0 1-.474.498 1.103 1.103 0 0 1-.8.039.99.99 0 0 1-.542-.505A.74.74 0 0 1 4.006 9a.74.74 0 0 1 .098-.427 1.01 1.01 0 0 1 .527-.502c.224-.089.605-.072.815.036m3.982-.011c.183.089.386.293.477.476.059.12.07.19.07.428 0 .336-.059.49-.272.703-.213.213-.367.272-.703.272-.238 0-.308-.011-.428-.07a1.176 1.176 0 0 1-.476-.477c-.083-.17-.111-.522-.057-.71.078-.273.347-.559.623-.664.179-.068.589-.046.766.042m3.933-.025a.988.988 0 0 1 .535.502.74.74 0 0 1 .098.427.74.74 0 0 1-.098.427.99.99 0 0 1-.542.505c-.136.051-.215.061-.409.051-.293-.016-.482-.102-.671-.308-.198-.214-.258-.372-.258-.675 0-.197.014-.287.064-.395.118-.257.378-.487.64-.567.152-.046.473-.03.641.033" fill-rule="evenodd" fill="#263238"/></svg>