<svg xmlns="http://www.w3.org/2000/svg" viewBox="0 0 18 18" xml:space="preserve"><path d="m7.365.99-3.12.015-.179.067c-.513.194-.945.683-1.036 1.175-.041.222-.041 13.284 0 13.506.091.492.523.981 1.036 1.175l.179.067 4.575.008c2.916.006 4.673-.002 4.845-.021a1.484 1.484 0 0 0 1.289-1.147c.039-.169.045-.876.047-5.345.001-3.122-.01-5.171-.027-5.201-.048-.087-4.216-4.244-4.279-4.267-.119-.046-.252-.047-3.33-.032M9.99 3.217c.001 1.428.02 1.66.165 1.967.126.266.377.529.616.646.321.156.465.169 1.911.169L14.01 6v9.581l-.063.129a.605.605 0 0 1-.157.197l-.095.068-4.62.008c-2.541.005-4.651.001-4.688-.008-.098-.024-.309-.223-.357-.337-.033-.079-.04-1.22-.04-6.635 0-4.547.01-6.565.032-6.624a.761.761 0 0 1 .283-.313c.086-.053.207-.056 2.887-.056H9.99v1.207m2.378 1.787c-.947.009-1.101-.005-1.219-.109-.134-.12-.139-.161-.139-1.196v-.984l1.14 1.14 1.14 1.14-.922.009" fill-rule="evenodd"/></svg>