<svg viewBox="0 0 18 18" xml:space="preserve" xmlns="http://www.w3.org/2000/svg"><path d="M9.246 3.058a.328.328 0 0 0-.186.188c-.057.126-.059.232-.059 4.088L9 11.294l-1.133-1.127c-.691-.689-1.17-1.143-1.229-1.166-.181-.071-.405.025-.565.242-.094.127-.12.272-.072.395.05.125 3.154 3.257 3.299 3.329a.564.564 0 0 0 .203.052c.127.001.36-.109.401-.19.018-.035.719-.753 1.558-1.594 1.037-1.041 1.531-1.557 1.545-1.614.048-.198-.067-.44-.268-.564-.139-.086-.22-.099-.359-.058-.105.031-.303.214-1.258 1.165L9.99 11.293V7.319c0-3.724-.003-3.98-.053-4.077-.077-.152-.182-.215-.385-.231a.533.533 0 0 0-.306.047m-5.871 9.963c-.166.023-.271.101-.327.241-.068.169-.069 1.29-.001 1.587.119.526.545.929 1.141 1.082.226.058.35.059 5.304.058 5.567 0 5.287.009 5.673-.181.24-.118.51-.361.636-.572.164-.274.189-.435.189-1.21 0-.771-.016-.848-.201-.954-.138-.08-.457-.077-.59.005-.169.105-.181.16-.198.908-.018.772-.021.782-.274.925l-.132.075H4.425l-.142-.07c-.267-.132-.276-.159-.293-.951-.016-.744-.029-.802-.187-.888a.81.81 0 0 0-.428-.055" fill-rule="evenodd"/></svg>