<svg xmlns="http://www.w3.org/2000/svg" viewBox="0 0 18 18" xml:space="preserve"><path d="M1.336 1.015a.672.672 0 0 0-.2.115c-.161.152-.162.173-.146 2.455l.015 2.1.068.109c.17.273.684.273.854 0 .068-.109.068-.11.077-1.592l.01-1.482 1.88 1.877c2 1.996 1.976 1.976 2.193 1.914.235-.068.423-.293.423-.509a.453.453 0 0 0-.049-.213c-.027-.041-.88-.907-1.896-1.925l-1.846-1.85 1.483-.01c1.482-.009 1.483-.009 1.592-.077.273-.17.273-.684 0-.854-.109-.068-.109-.068-1.579-.076C3.406.993 2.455.986 2.101.982c-.476-.005-.675.004-.765.033M14.4.99l-2.085.015-.109.068c-.273.17-.273.684 0 .854.109.068.11.068 1.592.077l1.482.01-1.877 1.88c-2.024 2.027-1.975 1.971-1.908 2.214.038.139.258.359.397.397.243.067.187.116 2.214-1.908l1.88-1.877.01 1.482c.009 1.482.009 1.483.077 1.592.17.273.684.273.854 0l.068-.109.009-2.143c.006-1.62 0-2.166-.028-2.235a.51.51 0 0 0-.416-.32C16.519.981 15.547.982 14.4.99M5.88 11.496c-.083.022-.501.424-1.986 1.906l-1.88 1.878-.01-1.482c-.009-1.482-.009-1.483-.077-1.592-.17-.273-.684-.273-.854 0l-.068.109-.015 2.1c-.016 2.282-.015 2.303.146 2.455.165.155.182.156 2.449.14l2.1-.015.109-.068c.273-.17.273-.684 0-.854-.109-.068-.11-.068-1.592-.077l-1.483-.01 1.846-1.85c1.016-1.018 1.869-1.884 1.896-1.925.081-.122.064-.332-.038-.472-.149-.206-.351-.296-.543-.243m6.005-.001c-.132.037-.353.262-.39.397-.067.243-.116.187 1.908 2.214l1.877 1.88-1.482.01c-1.482.009-1.483.009-1.592.077-.273.17-.273.684 0 .854l.109.068 2.1.015c2.266.016 2.284.015 2.448-.139.151-.142.151-.143.141-2.426l-.009-2.13-.068-.109c-.17-.273-.684-.273-.854 0-.068.109-.068.11-.077 1.592l-.01 1.483-1.865-1.862c-1.026-1.024-1.893-1.876-1.926-1.892a.427.427 0 0 0-.31-.032" fill-rule="evenodd"/></svg>