<svg xmlns="http://www.w3.org/2000/svg" viewBox="0 0 18 18" xml:space="preserve"><path d="M8.415.99a.74.74 0 0 0-.165.062c-.041.024-.556.529-1.144 1.123-.893.903-1.075 1.101-1.107 1.205-.041.139-.028.22.058.359.14.227.433.341.621.241.048-.025.357-.317.687-.648.33-.331.61-.602.622-.602.013 0 .023 2.238.023 4.973 0 4.759.002 4.977.055 5.075.148.276.662.29.858.022.062-.084.062-.086.077-5.078l.015-4.993.555.559c.305.307.615.598.688.645.166.108.3.112.467.014.236-.139.354-.426.255-.62-.02-.04-.494-.531-1.053-1.093-.559-.562-1.017-1.036-1.017-1.055 0-.091-.343-.222-.495-.189m1.854 8.249a.623.623 0 0 0-.272.46c-.023.288-.11.228 2.288 1.571 1.188.666 2.163 1.22 2.167 1.232.005.017-3.529 2.052-5.782 3.329l-.169.096-2.979-1.702c-1.639-.936-2.976-1.715-2.973-1.731.004-.016.852-.518 1.886-1.115 1.231-.711 1.914-1.123 1.977-1.192.079-.086.098-.131.097-.234a.644.644 0 0 0-.22-.466c-.09-.079-.137-.097-.247-.097a.594.594 0 0 0-.227.048c-.051.026-1.039.595-2.196 1.263-1.157.669-2.175 1.25-2.261 1.291-.172.082-.326.235-.356.355a.852.852 0 0 0-.005.227c.012.123.035.171.128.266a.776.776 0 0 0 .207.154c.129.051 6.791 3.858 6.906 3.945.071.055.131.071.258.071.141 0 .19-.017.342-.117.215-.143 6.628-3.807 6.838-3.907a.723.723 0 0 0 .249-.205c.093-.123.1-.147.089-.308-.011-.154-.027-.188-.131-.297a.844.844 0 0 0-.216-.165 205.31 205.31 0 0 1-2.46-1.366 199.892 199.892 0 0 0-2.512-1.394c-.183-.086-.3-.089-.426-.012" fill-rule="evenodd"/></svg>