<svg xmlns="http://www.w3.org/2000/svg" viewBox="0 0 18 18" xml:space="preserve"><path d="M15.87 3.462a126.78 126.78 0 0 0-2.778 1.344c-.4.236-.123.98.337.903.047-.008.481-.205.964-.437s.884-.415.891-.408c.018.018-.19.609-.321.911-.598 1.378-1.772 3.096-3.218 4.713a33.1 33.1 0 0 1-2.865 2.776c-2.048 1.722-4.128 2.89-5.577 3.132-.409.068-.88.05-1.111-.043-.495-.201-.689-.614-.652-1.396.022-.48.099-.859.288-1.427.588-1.761 1.771-3.627 3.499-5.52.219-.239.508-.543.643-.675.285-.28.374-.427.349-.579-.023-.145-.157-.326-.305-.413-.256-.15-.379-.09-.901.442C2.615 9.332.909 12.223.583 14.46c-.066.453-.046 1.111.043 1.449a1.99 1.99 0 0 0 1.429 1.45c.315.084 1.175.078 1.592-.012 2.188-.474 5.013-2.312 7.736-5.033 1.325-1.324 2.372-2.591 3.273-3.959.648-.985 1.112-1.859 1.408-2.654.076-.206.145-.38.152-.387.007-.007.052.074.1.179.047.106.23.486.405.845.349.716.395.772.636.772.161 0 .423-.132.498-.252.122-.194.096-.267-.66-1.833-.767-1.591-.795-1.636-1.032-1.634a.92.92 0 0 0-.293.071" fill-rule="evenodd"/></svg>