<svg viewBox="0 0 18 18" xml:space="preserve" xmlns="http://www.w3.org/2000/svg"><path d="M3.375 4.017c-.168.029-.272.107-.327.245-.101.253-.031.547.158.665l.109.068h11.37l.109-.068c.134-.083.191-.211.191-.427s-.057-.344-.191-.427l-.109-.068-5.595-.004c-3.077-.002-5.649.005-5.715.016m0 3c-.168.029-.272.107-.327.245-.101.253-.031.547.158.665l.109.068h11.37l.107-.067c.273-.169.275-.685.003-.854l-.11-.069-5.595-.004c-3.077-.002-5.649.005-5.715.016m0 3c-.168.029-.272.107-.327.245-.101.253-.031.547.158.665l.109.068h11.37l.109-.068c.134-.083.191-.211.191-.427s-.057-.344-.191-.427l-.109-.068-5.595-.004c-3.077-.002-5.649.005-5.715.016m0 3c-.168.029-.272.107-.327.245-.101.253-.031.547.158.665l.109.068h11.37l.107-.067c.273-.169.275-.685.003-.854l-.11-.069-5.595-.004c-3.077-.002-5.649.005-5.715.016" fill-rule="evenodd"/></svg>