<svg xmlns="http://www.w3.org/2000/svg" viewBox="0 0 18 18" xml:space="preserve"><path d="m5.475.977-.12.028c-.067.014-.493.421-1.646 1.57-.856.852-1.595 1.61-1.643 1.683-.107.166-.11.3-.013.466.147.251.424.358.634.246.049-.025.581-.54 1.183-1.143A40.668 40.668 0 0 1 4.987 2.73c.013 0 .023 3.135.023 6.967 0 6.574.003 6.974.053 7.072.076.152.205.215.441.215.248 0 .379-.072.448-.245.044-.109.048-.768.048-7.071V2.717L7.117 3.83c.615.612 1.149 1.129 1.187 1.148a.49.49 0 0 0 .388-.009c.121-.062.3-.274.324-.383.047-.214.06-.198-1.632-1.896-.885-.888-1.635-1.628-1.666-1.645-.074-.041-.205-.078-.243-.068m6.9.044c-.166.023-.271.101-.327.241-.043.108-.048.796-.048 7.07v6.951l-1.117-1.113c-.615-.612-1.149-1.129-1.187-1.148a.49.49 0 0 0-.388.009c-.121.062-.3.274-.324.383-.047.214-.06.198 1.632 1.896.885.888 1.648 1.635 1.697 1.661.138.072.297.056.444-.047.185-.129 3.158-3.121 3.215-3.235.068-.135.06-.269-.025-.413-.147-.251-.424-.358-.634-.246-.049.025-.581.54-1.183 1.143a40.668 40.668 0 0 1-1.117 1.097c-.013 0-.023-3.132-.023-6.961 0-7.575.011-7.102-.165-7.217-.098-.064-.289-.094-.45-.071" fill-rule="evenodd"/></svg>