<svg xmlns="http://www.w3.org/2000/svg" viewBox="0 0 18 18" style="enable-background:new 0 0 18 18" xml:space="preserve"><path d="M8.355.468c-.378.037-.72.081-.945.121A9.02 9.02 0 0 0 .582 6.274a9.08 9.08 0 0 0-.023 6.286c.194.527.615 1.356.926 1.824a9.19 9.19 0 0 0 2.88 2.77c.552.336 1.588.798 1.883.839a.48.48 0 0 0 .448-.198c.068-.109.068-.12.059-.935a36.862 36.862 0 0 0-.015-.829 3.089 3.089 0 0 0-.23.038c-.371.068-.986.061-1.305-.016a2.024 2.024 0 0 1-1.024-.559 1.527 1.527 0 0 1-.386-.541c-.28-.592-.332-.689-.461-.867a1.988 1.988 0 0 0-.561-.556c-.218-.149-.403-.332-.403-.401 0-.022.028-.065.063-.097.053-.048.11-.057.353-.056.278 0 .299.005.549.127.319.155.602.419.844.787.231.353.356.491.598.66.326.23.526.285 1.013.283.372-.002.429-.01.693-.097l.287-.096.065-.262c.078-.319.231-.64.393-.823l.12-.137-.182-.019a7.651 7.651 0 0 1-1.289-.288c-1.431-.477-2.224-1.404-2.519-2.942a6.986 6.986 0 0 1-.083-1.5 3.412 3.412 0 0 1 .746-1.916l.157-.193-.047-.152a2.642 2.642 0 0 1-.121-.903c.003-.416.049-.701.18-1.099.073-.221.079-.23.183-.247.407-.065 1.285.249 2.067.742l.306.192.234-.057a8.754 8.754 0 0 1 4.04 0l.234.057.306-.192c.781-.492 1.661-.807 2.065-.742.099.016.111.03.171.202.23.657.264 1.393.09 1.987l-.062.214.155.191c.308.379.515.797.666 1.347.065.236.07.31.069 1.005-.002.695-.007.777-.082 1.125-.098.461-.203.781-.359 1.095-.442.887-1.128 1.45-2.19 1.798a8.35 8.35 0 0 1-1.258.273l-.171.02.138.169c.166.204.283.447.373.77.064.231.067.298.078 1.8.01 1.49.014 1.564.07 1.655.074.119.279.204.439.183.444-.061 1.771-.719 2.483-1.231a10.17 10.17 0 0 0 1.71-1.597 9.032 9.032 0 0 0 1.601-8.533A8.967 8.967 0 0 0 14.3 2.179a8.928 8.928 0 0 0-4.025-1.64c-.402-.06-1.59-.104-1.92-.071" fill-rule="evenodd" fill="#263238"/></svg>