<svg xmlns="http://www.w3.org/2000/svg" viewBox="0 0 18 18" style="enable-background:new 0 0 18 18" xml:space="preserve"><path d="M8.415.021a9.009 9.009 0 0 0-6.832 3.894A8.973 8.973 0 0 0 .478 11.88a9.034 9.034 0 0 0 5.642 5.642 8.569 8.569 0 0 0 2.88.462c1.835 0 3.46-.489 4.985-1.501a8.996 8.996 0 0 0 3.64-10.04 9.021 9.021 0 0 0-6.39-6.158 9.325 9.325 0 0 0-2.82-.264m1.026 4.09a.988.988 0 0 1 .491.535c.089.235.072.584-.039.8a1.187 1.187 0 0 1-.498.474c-.198.091-.592.091-.79 0a1.187 1.187 0 0 1-.498-.474 1.108 1.108 0 0 1-.04-.798.989.989 0 0 1 1.374-.537M9.41 8.074c.229.086.43.288.516.518.065.174.065.179.057 2.459l-.008 2.284-.081.154c-.173.328-.486.505-.894.505-.408 0-.721-.177-.894-.505l-.081-.154-.008-2.284c-.008-2.28-.008-2.285.057-2.459a.926.926 0 0 1 .508-.516c.229-.088.595-.089.828-.002" fill-rule="evenodd"/></svg>