<svg xmlns="http://www.w3.org/2000/svg" viewBox="0 0 18 18" xml:space="preserve"><path d="M5.292.523a.477.477 0 0 0-.153.117c-.034.043-.476 1.05-.984 2.237-.852 1.993-.929 2.161-1.001 2.176-.044.009-.691.118-1.439.242-.748.125-1.403.244-1.455.267a.586.586 0 0 0-.17.122c-.064.069-.075.109-.075.281 0 .273.077.42.26.496l.135.056 1.167-.195a40.51 40.51 0 0 1 1.176-.188c.004.004-.613 1.46-1.373 3.237C.162 12.222 0 12.619 0 12.754c0 .297-.292.156 4.68 2.246 2.45 1.029 4.509 1.884 4.575 1.899.162.037.318-.029.422-.179.044-.063.966-2.199 2.049-4.745l1.969-4.631L15 6.571c.944-.56 1.328-.803 1.393-.883.073-.09.091-.145.101-.297.014-.218-.041-.312-.24-.414C16.093 4.895 5.95.642 5.7.552 5.476.471 5.421.467 5.292.523m5.088 3.061c2.466 1.034 4.488 1.884 4.493 1.889.005.005-.413.26-.929.566-.61.361-.967.591-1.02.656-.045.056-.905 2.039-1.975 4.555a576.28 576.28 0 0 1-1.914 4.474c-.017.015-7.821-3.25-7.86-3.289-.015-.015 2.717-6.432 2.758-6.477.013-.015.643-.13 1.399-.257 1.46-.244 1.521-.261 1.616-.437.063-.118.045-.454-.031-.57a.468.468 0 0 0-.332-.194c-.05-.001-.552.076-1.118.169-.565.094-1.034.164-1.042.156-.007-.007.281-.701.64-1.542.36-.84.663-1.551.674-1.58.015-.041.034-.046.087-.025.038.014 2.087.872 4.554 1.906m5.201 7.469c-.32.196-1.307 1.775-1.655 2.649-.51 1.275-.465 2.14.141 2.738.328.325.777.495 1.413.535 1.297.082 2.114-.286 2.434-1.098.092-.235.116-.937.043-1.296-.154-.759-.744-1.949-1.5-3.026-.313-.446-.425-.55-.608-.566a.36.36 0 0 0-.268.064m.499 1.742c.286.456.648 1.18.776 1.55.314.904.224 1.348-.315 1.556-.145.056-.254.07-.619.082-.729.024-1.117-.096-1.271-.391-.185-.356-.053-1.026.374-1.897.295-.602.748-1.353.791-1.311.011.012.13.197.264.411" fill-rule="evenodd"/></svg>