<svg xmlns="http://www.w3.org/2000/svg" xml:space="preserve" viewBox="0 0 18 18"><path d="M3.75 2.07A4.528 4.528 0 0 0 .231 5.1c-.219.647-.237.945-.222 3.645.014 2.426.014 2.434.167 2.97a4.535 4.535 0 0 0 2.146 2.711c.493.281 1.134.48 1.741.541.226.023 2.286.033 6.637.033h6.31v.338c0 .27.011.358.055.44.148.276.662.29.858.022.061-.083.062-.119.07-1.748.009-1.606.007-1.669-.051-1.799a.313.313 0 0 0-.188-.193c-.124-.057-.214-.059-2.447-.059L12.99 12l-.001-2.933c0-2.34-.008-2.986-.041-3.202a4.457 4.457 0 0 0-1.291-2.551 4.45 4.45 0 0 0-2.522-1.262c-.214-.032-.772-.041-2.67-.039-2.198.002-2.426.007-2.715.057m5.22.961a3.56 3.56 0 0 1 2.19 1.208c.429.504.705 1.115.809 1.791.019.123.031 1.636.031 4.087v3.893H8.219c-3.796 0-4.141-.008-4.544-.108a3.58 3.58 0 0 1-2.577-2.577c-.1-.397-.113-.8-.1-3.06.013-2.417.009-2.351.193-2.895.214-.634.667-1.251 1.234-1.682.385-.293.979-.547 1.503-.641.282-.052 4.723-.066 5.042-.016m-2.655.981a4.622 4.622 0 0 0-2.535.906c-.367.274-.83.785-1.103 1.219a4.928 4.928 0 0 0-.595 1.535 5.64 5.64 0 0 0-.043 1.368 4.506 4.506 0 0 0 2.078 3.27 4.412 4.412 0 0 0 2.533.672 4.084 4.084 0 0 0 1.26-.219 4.462 4.462 0 0 0 1.802-1.127 4.447 4.447 0 0 0 1.227-2.441c.052-.321.057-1.02.01-1.335a4.495 4.495 0 0 0-4.634-3.848m1.059 1.1c.562.157.999.387 1.416.747.536.462.897 1.044 1.098 1.767.106.381.133 1.079.058 1.479a3.398 3.398 0 0 1-.901 1.782c-.822.864-1.955 1.253-3.105 1.067a3.472 3.472 0 0 1-1.909-.985 3.472 3.472 0 0 1-.985-1.909 3.462 3.462 0 0 1 1.023-3.061 3.374 3.374 0 0 1 1.736-.93c.404-.088 1.177-.067 1.569.043M17.01 13.5v.51h-4.02v-1.02h4.02v.51" fill-rule="evenodd"/></svg>