<svg xmlns="http://www.w3.org/2000/svg" xml:space="preserve" viewBox="0 0 18 18"><path d="M14.217 1.026c-1.052.089-1.986.958-2.171 2.019-.146.837.099 1.623.693 2.216.377.377.808.605 1.315.693a2.451 2.451 0 0 0 2.258-.744c.47-.496.674-1.019.672-1.731a2.368 2.368 0 0 0-.721-1.742c-.548-.548-1.218-.781-2.046-.711m.727 1.043c.638.197 1.046.759 1.046 1.439 0 .437-.12.725-.433 1.04a1.42 1.42 0 0 1-.824.436c-.985.162-1.879-.732-1.717-1.717a1.562 1.562 0 0 1 1.069-1.215c.19-.061.636-.052.859.017M9.96 5.999c-1.595.018-1.568.014-1.683.2-.082.133-.085.452-.005.59.11.192.163.201 1.148.201h.885L8.16 9.135 6.015 11.28 6 10.382c-.014-.848-.018-.902-.077-.982-.136-.186-.483-.252-.702-.135-.211.114-.207.078-.214 1.839-.006 1.516-.004 1.583.052 1.679a.518.518 0 0 0 .158.158c.096.056.163.058 1.679.052 1.436-.006 1.588-.011 1.681-.059.277-.141.291-.661.023-.857-.08-.059-.134-.063-.982-.077l-.898-.015L8.865 9.84l2.145-2.145v.885c0 .985.009 1.038.201 1.148.139.081.457.077.592-.007.193-.119.193-.122.199-1.838.005-1.656.007-1.634-.147-1.773a.639.639 0 0 0-.365-.132c-.041.003-.73.013-1.53.021m-7.743 7.027c-1.052.089-1.986.958-2.171 2.019a2.355 2.355 0 0 0 0 .901 2.493 2.493 0 0 0 2.008 2.008 2.451 2.451 0 0 0 2.258-.744c.47-.496.674-1.019.672-1.731a2.368 2.368 0 0 0-.721-1.742c-.548-.548-1.218-.781-2.046-.711m.727 1.043c.638.197 1.046.759 1.046 1.439 0 .437-.12.725-.433 1.04a1.42 1.42 0 0 1-.824.436c-.985.162-1.879-.732-1.717-1.717a1.562 1.562 0 0 1 1.069-1.215c.19-.061.636-.052.859.017" fill-rule="evenodd"/></svg>