<svg xmlns="http://www.w3.org/2000/svg" xml:space="preserve" viewBox="0 0 18 18"><path d="M2.222 2.065a.454.454 0 0 0-.157.157c-.053.098-.055.37-.055 6.778 0 6.295.003 6.681.053 6.78.03.06.097.127.157.157.099.05.485.053 6.78.053 6.408 0 6.68-.002 6.778-.055.276-.148.29-.662.022-.858-.083-.061-.116-.062-2.003-.07l-1.92-.009.095-.079c.083-.07 1.638-1.948 1.928-2.329.09-.119.11-.169.11-.285 0-.322-.356-.598-.642-.499-.152.052-.159.059-.712.737-.268.328-.491.592-.496.587a5.575 5.575 0 0 1-.098-.353c-.531-2.043-1.94-4.162-3.565-5.361-.909-.67-2.146-1.226-3.318-1.49a3.888 3.888 0 0 1-.337-.084c-.006-.006.279-.224.633-.484.692-.509.811-.62.841-.779.027-.141-.064-.334-.221-.476-.108-.097-.145-.113-.268-.113a.467.467 0 0 0-.251.068c-.206.128-2.351 1.717-2.462 1.825l-.112.108-.009-1.853c-.008-1.821-.009-1.855-.07-1.938-.136-.185-.483-.252-.701-.135M3.973 7.68c.458.619.868 1.162.911 1.208a.38.38 0 0 0 .444.097c.169-.064.359-.246.386-.369.038-.176-.036-.311-.586-1.052a16.453 16.453 0 0 1-.532-.739c.027-.023.734.161 1.164.304.61.201 1.38.573 1.876.904 1.595 1.067 3.008 3.122 3.481 5.062.04.165.073.31.073.323 0 .012-.294-.218-.653-.512a52.703 52.703 0 0 0-.766-.62c-.151-.113-.357-.134-.493-.049a.785.785 0 0 0-.297.417c-.039.211.04.298.972 1.059.472.386.991.811 1.152.945.161.134.324.265.362.291.062.044-.291.048-4.199.049L3 15V6.352l.07.101c.038.056.445.608.903 1.227" fill-rule="evenodd"/></svg>