<svg xmlns="http://www.w3.org/2000/svg" viewBox="0 0 18 18" xml:space="preserve"><path d="M8.235.085c-.083.046-1.659 1.011-3.503 2.144A255.199 255.199 0 0 1 1.35 4.29c-.058 0-.274.221-.317.324-.037.088-.043.72-.043 4.373 0 2.873.01 4.318.032 4.417a.428.428 0 0 0 .127.238c.053.049 1.642 1.017 3.531 2.151a381.508 381.508 0 0 1 3.513 2.121.51.51 0 0 0 .255.076c.147.012.199.002.303-.055.397-.219 7.083-4.259 7.125-4.305a.513.513 0 0 0 .081-.138c.021-.055.032-1.496.034-4.468l.002-4.386-.085-.121a.772.772 0 0 0-.219-.195 540.12 540.12 0 0 1-3.479-2.129A398.423 398.423 0 0 0 8.732.069c-.175-.091-.313-.087-.497.016m3.3 2.863a209.078 209.078 0 0 1 2.976 1.845c.004.012-1.347.833-3.002 1.825L8.5 8.421 5.479 6.608 2.458 4.795l3.021-1.856c1.662-1.021 3.036-1.847 3.054-1.836l3.002 1.845M5.036 7.5 8.01 9.285v3.668c0 3.486-.003 3.668-.053 3.64-.028-.017-1.375-.824-2.992-1.796l-2.94-1.765-.008-3.669c-.004-2.098.004-3.664.019-3.658.015.005 1.365.813 3 1.795M15 9.358v3.659l-3 1.8-3 1.8V9.279l2.977-1.788a308.031 308.031 0 0 1 3-1.79c.013 0 .023 1.645.023 3.657" fill-rule="evenodd"/></svg>