<svg xmlns="http://www.w3.org/2000/svg" viewBox="0 0 18 18" xml:space="preserve"><path d="m7.365.989-3.12.016-.179.067c-.513.194-.945.683-1.036 1.175-.041.222-.041 13.284 0 13.506.093.503.557 1.016 1.069 1.184.166.055.283.058 2.126.058 1.906 0 1.952-.001 2.055-.061.139-.081.21-.228.21-.434s-.071-.353-.21-.434c-.102-.059-.156-.061-1.965-.069a63.066 63.066 0 0 1-1.928-.023c-.097-.022-.309-.221-.357-.336-.033-.079-.04-1.22-.04-6.635 0-4.538.01-6.565.032-6.624a.811.811 0 0 1 .304-.327c.068-.035.524-.042 2.873-.042H9.99v1.207c.001 1.428.02 1.66.165 1.967.126.266.377.529.616.646.321.156.465.169 1.911.169L14.01 6v.832c0 .733.006.845.053.937.076.152.205.215.441.215.225 0 .368-.067.438-.206.056-.111.092-2.316.04-2.45-.019-.048-.963-1.016-2.13-2.184-1.77-1.77-2.116-2.103-2.225-2.14a.602.602 0 0 0-.136-.037c-.003.004-1.41.014-3.126.022m5.003 4.015c-.947.009-1.101-.005-1.219-.109-.134-.12-.139-.161-.139-1.196v-.984l1.14 1.14 1.14 1.14-.922.009m.817 4.013a25.69 25.69 0 0 1-.36.046c-.5.062-1.169.301-1.644.586a4.698 4.698 0 0 0-1.527 1.526 4.767 4.767 0 0 0-.584 1.569c-.067.394-.066 1.155.002 1.533.259 1.428 1.154 2.612 2.477 3.273.275.138.854.322 1.195.38a5.798 5.798 0 0 0 1.512 0c1.423-.242 2.63-1.15 3.294-2.479.138-.275.322-.854.38-1.195a5.798 5.798 0 0 0 0-1.512c-.242-1.423-1.15-2.63-2.479-3.294a5.357 5.357 0 0 0-1.179-.375c-.283-.046-.926-.08-1.087-.058m.669 1.005c.871.095 1.557.433 2.169 1.069.573.596.868 1.239.958 2.087a3.565 3.565 0 0 1-.349 1.889 3.955 3.955 0 0 1-1.06 1.251 3.505 3.505 0 0 1-4.144 0 3.955 3.955 0 0 1-1.06-1.251 3.565 3.565 0 0 1-.349-1.889c.09-.848.385-1.491.958-2.087.598-.621 1.304-.975 2.133-1.068.326-.036.419-.037.744-.001m-.623 1.041a.467.467 0 0 0-.165.157c-.058.099-.062.163-.071 1.158-.011 1.176.006 1.357.138 1.489.163.163.571.163.734 0 .132-.132.149-.313.138-1.489-.009-.995-.013-1.059-.071-1.158-.081-.139-.228-.21-.434-.21a.673.673 0 0 0-.269.053m.089 3.969c-.369.155-.414.686-.076.884a.485.485 0 0 0 .496.01.444.444 0 0 0 .228-.309c.054-.205-.019-.398-.205-.537-.091-.068-.333-.094-.443-.048" fill-rule="evenodd"/></svg>