<svg xmlns="http://www.w3.org/2000/svg" viewBox="0 0 18 18" xml:space="preserve"><path d="M8.295.054c-.066.031-1.637.924-3.491 1.983a294.376 294.376 0 0 1-3.45 1.957.673.673 0 0 0-.307.303c-.057.11-.058.217-.05 4.275.009 4.724-.018 4.271.271 4.461.087.056 1.646.974 3.466 2.04a264.964 264.964 0 0 1 3.418 2.019c.096.074.134.083.338.083.214 0 .239-.007.392-.11.09-.061 1.655-.983 3.478-2.05A426.063 426.063 0 0 0 15.785 13c.219-.149.203.193.206-4.445.002-3.854-.002-4.182-.048-4.281-.052-.108-.238-.284-.301-.284-.019 0-1.597-.893-3.507-1.984C9.4.443 8.637.019 8.539.01a.477.477 0 0 0-.244.044m3.184 2.721c1.631.932 2.966 1.708 2.966 1.725 0 .017-1.336.794-2.969 1.727-2.181 1.246-2.983 1.69-3.019 1.672A697.588 697.588 0 0 1 2.522 4.5c0-.016 5.939-3.415 5.972-3.418.01-.001 1.353.761 2.985 1.693M5.032 7.094l2.978 1.7v3.511c0 3.246-.004 3.51-.049 3.492a350.7 350.7 0 0 1-3-1.746L2.01 12.323V8.845c0-1.913.01-3.473.022-3.465l3 1.714M15 8.843v3.473l-2.982 1.747a335.911 335.911 0 0 1-3.001 1.747c-.009 0-.014-1.582-.01-3.516l.008-3.517 2.97-1.701a351.5 351.5 0 0 1 2.992-1.703c.013-.002.023 1.56.023 3.47" fill-rule="evenodd"/></svg>