<svg xmlns="http://www.w3.org/2000/svg" viewBox="0 0 18 18" xml:space="preserve"><path d="M14.28.039c-.114.055-3.231 3.203-3.268 3.3-.072.191-.024.353.153.52.174.164.31.199.496.129.046-.017.595-.54 1.219-1.162l1.134-1.131L14 3.09c-.015 1.528-.027 1.654-.205 2.175a3.957 3.957 0 0 1-1.186 1.77 3.509 3.509 0 0 1-.819.543c-.531.26-.993.377-1.643.418-.225.015-.369.039-.432.073-.27.144-.279.661-.015.854.076.055.124.061.439.057 2.206-.031 4.151-1.575 4.698-3.73.128-.505.138-.638.154-2.111l.015-1.437 1.145 1.142c.771.77 1.171 1.149 1.228 1.163.198.048.441-.067.563-.268a.492.492 0 0 0-.018-.501c-.12-.162-3.11-3.148-3.2-3.196a.67.67 0 0 0-.444-.003M2.893 11.057a3.423 3.423 0 0 0-2.772 2.53c-.2.786-.131 1.631.195 2.383.312.722.992 1.402 1.714 1.714.618.268 1.042.325 2.31.311.83-.009.88-.013.96-.072.249-.182.257-.679.015-.844-.072-.049-.186-.056-1.16-.072-.98-.017-1.102-.024-1.32-.083a2.447 2.447 0 0 1-1.758-1.759c-.051-.19-.064-.327-.065-.66-.001-.503.056-.754.263-1.176a2.55 2.55 0 0 1 1.2-1.128c.411-.172.46-.178 1.64-.198 1.051-.017 1.105-.021 1.185-.08.185-.136.252-.483.135-.701-.111-.208-.137-.212-1.28-.209-.706.002-1.094.016-1.262.044m4.849.004c-.146.077-.213.183-.232.373a.5.5 0 0 0 .044.304c.108.246.103.244 1.341.264 1.067.017 1.083.018 1.35.099.804.245 1.41.851 1.653 1.654.074.243.082.317.084.735.001.498-.028.666-.183 1.035a2.55 2.55 0 0 1-1.128 1.2c-.497.245-.604.261-1.822.282-.95.016-1.076.024-1.148.071-.119.079-.173.179-.192.36-.024.237.064.424.237.502.118.054.202.059 1.014.059.921.001 1.271-.025 1.65-.12 1.336-.337 2.309-1.415 2.538-2.814.063-.384.042-1.026-.046-1.385-.326-1.329-1.234-2.238-2.582-2.584-.235-.061-.342-.067-1.365-.077-1.021-.01-1.118-.007-1.213.042m-3.511 3.002c-.152.076-.215.205-.215.441 0 .248.072.379.245.448.106.042.366.048 2.242.047 2.038 0 2.127-.003 2.251-.059.174-.079.261-.265.236-.506-.019-.19-.086-.297-.232-.371-.095-.049-.266-.053-2.263-.053-1.997 0-2.168.004-2.264.053" fill-rule="evenodd"/></svg>