<svg xmlns="http://www.w3.org/2000/svg" viewBox="0 0 18 18" xml:space="preserve"><path d="M14.28.039c-.114.055-3.231 3.203-3.268 3.3-.072.191-.024.353.153.52.174.164.31.199.496.129.046-.017.595-.54 1.219-1.162l1.135-1.131L14 3.09c-.016 1.527-.028 1.659-.205 2.175a3.957 3.957 0 0 1-1.186 1.77 3.509 3.509 0 0 1-.819.543c-.531.26-.993.377-1.643.418-.225.015-.369.039-.432.073-.27.144-.279.661-.015.854.076.055.124.061.439.057 2.206-.031 4.151-1.575 4.698-3.73.128-.505.138-.638.154-2.111l.015-1.437 1.145 1.142c.771.77 1.171 1.149 1.228 1.163.198.048.441-.067.563-.268a.492.492 0 0 0-.018-.501c-.12-.162-3.11-3.148-3.2-3.196a.67.67 0 0 0-.444-.003M2.159 3.041c-.412.089-.81.409-1 .804a1.367 1.367 0 0 0-.14.506C.997 4.548.99 6.184.996 9.705l.009 5.07.068.2c.161.473.619.885 1.095.984.11.022 1.624.03 5.047.024l4.89-.008.225-.069c.349-.105.856-.37 1.125-.587.132-.107 1.072-1.029 2.088-2.049 1.457-1.463 1.863-1.886 1.918-2.003.075-.16.108-.401.077-.566-.048-.255-.344-.533-.678-.639-.144-.045-.339-.054-1.503-.065l-1.338-.012-.017-.343c-.014-.275-.029-.362-.08-.444-.162-.261-.682-.261-.844 0-.051.082-.066.169-.08.446l-.017.343-2.988.011c-3.326.012-3.144.001-3.708.222-.329.129-.58.265-.814.441-.097.073-.912.91-1.811 1.86l-1.635 1.728-.008-4.937c-.008-5.533-.027-5.068.213-5.227l.121-.08h1.142c1.118 0 1.146.002 1.352.07.239.08.543.225.627.3.031.027.435.475.897.995.461.52.881.983.933 1.029.318.285.788.479 1.353.56.116.016.5.03.855.03.704.001.786-.015.907-.181.089-.121.103-.38.029-.546-.103-.233-.144-.244-.996-.264-.565-.013-.78-.029-.928-.07a1.587 1.587 0 0 1-.53-.249c-.034-.03-.441-.479-.903-.999-.463-.52-.88-.981-.928-1.024-.288-.265-.869-.522-1.381-.611-.33-.058-2.359-.061-2.621-.004m12.526 9.681c-.941.941-1.791 1.774-1.89 1.849a2.602 2.602 0 0 1-.396.239c-.436.203-.094.191-5.131.183l-4.566-.008 1.574-1.665c.866-.916 1.643-1.728 1.728-1.806.179-.164.516-.339.836-.434l.225-.067 4.665-.001 4.665-.002-1.71 1.712" fill-rule="evenodd"/></svg>