<svg xmlns="http://www.w3.org/2000/svg" xml:space="preserve" style="enable-background:new 0 0 18 18" viewBox="0 0 18 18"><path d="M8.079.029c-.676.05-.887.117-1.003.316-.04.07-.506 2.434-.506 2.57 0 .014-.152.098-.338.187-.355.171-.916.501-1.101.648l-.11.087-1.168-.45a30.867 30.867 0 0 0-1.282-.476.412.412 0 0 0-.394.112c-.08.086-.753 1.11-.953 1.449-.063.109-.252.493-.418.855-.336.729-.365.852-.243 1.023.035.05.504.446 1.042.882l.978.791-.022.196c-.028.252-.028 1.286 0 1.501l.022.166-.992.849c-.553.474-1.013.891-1.04.942-.089.174-.046.342.289 1.118.291.676.331.75.647 1.2.573.817.762 1.006 1.003 1.004.062 0 .592-.188 1.301-.46l1.195-.46.267.2c.289.217.761.506 1.086.665.131.065.208.121.217.161.007.033.088.573.18 1.2s.18 1.189.196 1.249c.091.349.457.429 1.963.429 1.244 0 1.676-.056 1.859-.239.117-.117.114-.105.315-1.469.082-.561.157-1.061.165-1.112.014-.078.039-.099.174-.147.359-.126.869-.417 1.229-.699.108-.085.191-.129.225-.119.029.008.564.212 1.19.453 1.207.466 1.311.493 1.494.386.145-.084 1.16-1.535 1.387-1.983.176-.348.35-.93.352-1.18.001-.121-.016-.17-.085-.255-.047-.057-.497-.439-1-.848s-.912-.756-.909-.773l.073-.341c.056-.259.069-.419.075-.939l.006-.627.987-.846c.671-.575 1-.877 1.026-.941.073-.175.026-.346-.298-1.099-.292-.676-.331-.75-.647-1.2-.573-.816-.762-1.006-1.003-1.004-.062 0-.593.188-1.303.461l-1.197.461-.183-.143a7.16 7.16 0 0 0-1.022-.647 15.486 15.486 0 0 1-.342-.182c-.013-.011-.035-.148-.241-1.535-.163-1.092-.183-1.157-.38-1.25a2.234 2.234 0 0 0-.457-.094C9.965.021 8.548-.006 8.079.029m1.679.988c.211.013.389.03.396.037.007.007.088.525.181 1.152.093.626.181 1.187.196 1.245.042.159.149.239.636.477.502.246.959.541 1.274.823.234.21.376.275.524.243.052-.012.6-.215 1.217-.452a29.767 29.767 0 0 1 1.157-.432c.02.001.167.187.326.414.238.339.33.504.513.923l.222.51-.872.743c-.48.408-.916.776-.968.817a.562.562 0 0 0-.147.21c-.047.122-.048.153-.01.307.054.221.056 1.12.002 1.371a8.061 8.061 0 0 1-.129.485c-.079.267-.086.319-.056.428a.574.574 0 0 0 .114.211c.045.047.486.414.981.813.794.642.9.737.896.808-.006.118-.225.569-.437.899-.306.478-.63.931-.665.931-.019 0-.543-.196-1.165-.435-1.204-.463-1.303-.488-1.479-.379-.05.031-.183.139-.297.24a3.768 3.768 0 0 1-1.325.755c-.304.101-.41.168-.478.3-.025.047-.12.603-.212 1.235a25.93 25.93 0 0 1-.193 1.213c-.024.061-.053.065-.553.086-.527.022-1.479-.003-1.541-.041-.017-.011-.108-.533-.201-1.16a41.476 41.476 0 0 0-.196-1.245c-.042-.159-.149-.239-.636-.477-.502-.246-.959-.541-1.274-.823-.234-.21-.376-.275-.524-.243-.052.012-.6.215-1.217.452-.616.238-1.137.432-1.157.432-.02-.001-.167-.187-.326-.414a4.288 4.288 0 0 1-.513-.923l-.222-.511.945-.808c1.128-.966 1.081-.902 1.024-1.406a10.556 10.556 0 0 1 .001-1.733c.043-.413.024-.502-.143-.66a35.91 35.91 0 0 0-.907-.745 84.509 84.509 0 0 1-.849-.689c-.051-.048-.044-.072.167-.53.15-.325.324-.637.541-.966.175-.267.326-.485.334-.485.008 0 .524.197 1.148.437 1.365.527 1.302.518 1.682.229.351-.268.735-.495 1.282-.758.428-.206.561-.293.625-.407.01-.018.12-.577.244-1.241.123-.665.232-1.217.243-1.227.051-.051 1.214-.074 1.821-.036M8.534 6.043A3.014 3.014 0 0 0 6.347 7.62a2.99 2.99 0 0 0 2.334 4.354c1.872.217 3.51-1.421 3.293-3.293a2.994 2.994 0 0 0-3.44-2.638m.775.98c.867.132 1.55.832 1.673 1.714.152 1.085-.619 2.092-1.72 2.245-1.084.152-2.091-.619-2.244-1.72-.145-1.038.578-2.041 1.607-2.228.27-.049.418-.052.684-.011" fill-rule="evenodd"/></svg>