<svg viewBox="0 0 18 18" xml:space="preserve" xmlns="http://www.w3.org/2000/svg"><path d="M3.375 4.017c-.168.029-.272.107-.327.245-.101.253-.031.547.158.665l.109.068 1.597.009 1.598.009v8.688l.069.102c.138.206-.165.192 4.176.192h3.93l.107-.067c.273-.169.275-.685.003-.854l-.11-.069-3.593-.008-3.592-.009v-1.976l3.592-.009 3.593-.008.109-.068c.134-.083.191-.211.191-.427s-.057-.344-.191-.427l-.109-.068-3.593-.008L7.5 9.988V8.012l3.592-.009 3.593-.008.107-.067c.273-.169.275-.685.003-.854l-.11-.069-3.593-.008L7.5 6.988V5.012l3.592-.009 3.593-.008.109-.068c.134-.083.191-.211.191-.427s-.057-.344-.191-.427l-.109-.068-5.595-.004c-3.077-.002-5.649.005-5.715.016" fill-rule="evenodd"/></svg>