<svg xmlns="http://www.w3.org/2000/svg" viewBox="0 0 18 18" style="enable-background:new 0 0 18 18" xml:space="preserve"><path d="M8.295.029C5.481.284 3.04 1.719 1.517 4.015.701 5.246.269 6.424.055 8.01c-.057.425-.048 1.635.016 2.1.284 2.064 1.148 3.827 2.573 5.253 1.453 1.453 3.271 2.323 5.396 2.582.661.081 1.738.045 2.505-.083 3.197-.536 5.941-2.888 6.977-5.982.815-2.434.559-5.129-.695-7.313-1.435-2.5-3.834-4.105-6.717-4.493-.406-.055-1.43-.08-1.815-.045m3.414 4.966c.391.081.75.257 1.024.501.164.146.175.151.307.133.21-.029.723-.21 1.027-.362.15-.076.273-.124.273-.108 0 .062-.15.364-.264.531a2.997 2.997 0 0 1-.584.594c-.046.03-.078.06-.072.066.026.026.65-.122.918-.218.156-.055.288-.096.293-.091.05.05-.736.898-.99 1.069l-.111.075v.396c0 1.315-.507 2.768-1.354 3.886-.236.31-.75.842-1.046 1.081A6.213 6.213 0 0 1 8.445 13.8a6.108 6.108 0 0 1-1.346.123c-.767 0-1.37-.096-2.089-.332-.285-.094-1.287-.57-1.345-.639-.023-.029.07-.035.424-.028a4.38 4.38 0 0 0 2.592-.751l.285-.188-.177-.02a2.261 2.261 0 0 1-1.459-.747c-.174-.187-.396-.55-.454-.741-.021-.069-.02-.069.216-.049.142.012.344.005.503-.018l.266-.038-.244-.081a2.273 2.273 0 0 1-1.556-1.978l-.02-.219.157.08c.188.095.564.196.731.196h.12l-.141-.107c-.345-.264-.683-.818-.785-1.285-.102-.473-.01-1.171.201-1.518l.059-.096.123.146c.068.08.245.263.393.408a6.473 6.473 0 0 0 3.892 1.789l.235.02-.017-.346c-.037-.727.185-1.304.686-1.791a2.244 2.244 0 0 1 2.014-.595" fill-rule="evenodd" fill="#263238"/></svg>