<svg xmlns="http://www.w3.org/2000/svg" viewBox="0 0 18 18" xml:space="preserve"><path d="M10.815.227c-.134.068-2.019 1.958-2.09 2.095-.075.144-.06.28.048.436.042.06.505.536 1.029 1.057.796.793.974.955 1.078.986.139.041.22.028.359-.058.201-.124.316-.367.267-.564-.013-.053-.219-.284-.566-.633l-.545-.55 1.035.011c1.14.013 1.215.023 1.718.232.674.281 1.332.939 1.613 1.613.221.53.219.514.237 2.258.019 1.795.009 1.723.264 1.836a.5.5 0 0 0 .304.044c.19-.019.297-.086.371-.232.048-.094.053-.234.052-1.603 0-1.577-.011-1.746-.146-2.22a4.081 4.081 0 0 0-2.778-2.778c-.442-.126-.677-.146-1.694-.146l-.974-.001.53-.532c.291-.293.543-.571.561-.617.07-.185.035-.322-.129-.496-.174-.185-.36-.233-.544-.138m-7.458.782a.505.505 0 0 0-.198.108c-.035.037-.522.534-1.083 1.103-.561.569-1.036 1.067-1.056 1.107-.101.198.014.478.256.62.144.085.278.093.413.025.053-.027.37-.321.704-.653l.608-.603-.002 5.015c-.002 4.968-.001 5.017.059 5.134.043.086.1.138.203.188.079.038 1.676.966 3.548 2.062a316.904 316.904 0 0 0 3.525 2.049c.272.123.502.014.634-.3.092-.221.035-.419-.158-.551-.063-.043-1.492-.884-3.175-1.868-1.683-.985-3.097-1.813-3.142-1.841l-.082-.052 3.172-1.811a329.26 329.26 0 0 0 3.257-1.874c.178-.129.217-.338.107-.573-.109-.232-.285-.34-.489-.301-.057.01-1.531.835-3.278 1.833L4.005 11.64l-.008-4.445c-.004-2.445 0-4.452.009-4.461.008-.008.302.27.652.618.412.41.667.641.721.655.197.048.44-.067.564-.268.086-.139.099-.22.058-.359-.032-.104-.214-.302-1.107-1.205-.588-.594-1.103-1.099-1.144-1.122a.475.475 0 0 0-.393-.044m9.018 9.009c-.168.028-.272.106-.327.244-.101.253-.031.547.158.665.109.068.112.068 1.674.083l1.564.015-1.61 2.01a172.685 172.685 0 0 1-1.703 2.106.515.515 0 0 0-.036.684c.139.176.081.172 2.425.167 2.381-.005 2.29.002 2.409-.203.08-.139.076-.457-.008-.592-.121-.196-.126-.197-1.832-.197-.841 0-1.529-.007-1.529-.015 0-.026 3.119-3.92 3.255-4.065a.848.848 0 0 0 .161-.237c.096-.289-.029-.57-.293-.659-.112-.037-4.087-.043-4.308-.006" fill-rule="evenodd"/></svg>