<svg viewBox="0 0 18 18" xml:space="preserve" xmlns="http://www.w3.org/2000/svg"><path d="M8.46 4.024c-1.113.089-2.087.346-3.202.845C3.794 5.524 2.043 6.791.502 8.31L0 8.805v.39l.503.495c2.753 2.71 5.484 4.16 8.069 4.284 1.403.068 2.685-.187 4.118-.818 1.473-.649 3.238-1.921 4.807-3.466L18 9.195v-.39l-.503-.495c-1.569-1.545-3.337-2.819-4.807-3.466-1.129-.497-2.054-.733-3.222-.824a4.857 4.857 0 0 0-1.008.004m1.32 1.075a3.062 3.062 0 0 1 2.134 2.186c.034.13.067.38.076.575.098 2.04-1.83 3.574-3.804 3.027A3.027 3.027 0 0 1 6 8.011c0-1.307.826-2.444 2.081-2.866.338-.113.501-.133 1.009-.121.364.008.514.024.69.075m-4.2.837a4.055 4.055 0 0 0-.57 2.067 3.997 3.997 0 0 0 3.281 3.928 5.102 5.102 0 0 0 1.418 0 4.062 4.062 0 0 0 2.608-1.704 4.375 4.375 0 0 0 .643-1.699 5.073 5.073 0 0 0-.045-1.328 4.44 4.44 0 0 0-.514-1.296c-.039-.063-.063-.114-.052-.114.058 0 1.051.539 1.374.745.917.586 1.916 1.378 2.822 2.237l.24.228-.24.227c-2.03 1.919-4.026 3.138-5.838 3.564-.661.156-.924.184-1.707.184-.764 0-1.042-.029-1.65-.17-1.421-.329-2.995-1.155-4.494-2.357-.4-.322-1.048-.885-1.401-1.22L1.215 9l.24-.228a19.56 19.56 0 0 1 2.822-2.237c.326-.208 1.31-.743 1.37-.744.012-.001-.018.065-.067.145" fill-rule="evenodd"/></svg>