<svg viewBox="0 0 18 18" style="enable-background:new 0 0 18 18" xml:space="preserve" xmlns="http://www.w3.org/2000/svg"><path d="M8.445.017c-.64.063-.83.088-1.155.152a8.947 8.947 0 0 0-3.2 1.292C1.828 2.948.383 5.289.056 7.995c-.051.423-.051 1.579 0 2.01a9.028 9.028 0 0 0 4.034 6.534c1.857 1.221 4.198 1.706 6.41 1.329a8.99 8.99 0 0 0 7.004-5.929c.902-2.593.537-5.565-.965-7.849A9.007 9.007 0 0 0 10.125.074C9.779.029 8.694-.007 8.445.017m1.589 1.048a8.057 8.057 0 0 1 3.772 1.541 8.443 8.443 0 0 1 1.98 2.153c.219.348.58 1.089.729 1.492a8.053 8.053 0 0 1 0 5.498c-.149.403-.51 1.144-.729 1.492a8.35 8.35 0 0 1-2.545 2.545c-.348.219-1.089.58-1.492.729a8.013 8.013 0 0 1-5.695-.077c-2.701-1.074-4.567-3.468-4.993-6.403-.078-.544-.071-1.602.016-2.171.567-3.728 3.553-6.53 7.293-6.846a10.52 10.52 0 0 1 1.664.047m-1.22 2.959a.894.894 0 0 0-.705.501l-.084.17v4.62l.074.149a.968.968 0 0 0 .437.437c.13.064.19.074.464.074s.334-.01.464-.074a.968.968 0 0 0 .437-.437l.074-.149.008-2.247c.007-1.925.002-2.27-.036-2.402-.135-.464-.581-.716-1.133-.642m-.043 8.003c-.311.08-.59.329-.702.627-.086.227-.072.557.032.772a.992.992 0 0 0 .731.549c.606.095 1.117-.315 1.151-.923a.809.809 0 0 0-.052-.398 1.066 1.066 0 0 0-.5-.549c-.178-.085-.491-.122-.66-.078" fill-rule="evenodd" fill="#263238"/></svg>